<svg xmlns="http://www.w3.org/2000/svg" width="300" height="300"><path d="M88.22 279.91c-1.01-9.233-.783-19.009.504-21.725 1.288-2.716 2.643-44.577 3.012-93.024.556-72.872.028-88.342-3.054-89.565-4.524-1.795-28.883-.308-31.012 1.893-2.494 2.579-8.756-4.242-8.756-9.537 0-6.137 9.103-8.144 25.364-5.593 6.712 1.053 12.542.872 12.955-.402.414-1.275 13.798-3.143 29.743-4.15 18.522-1.171 28.867-2.937 28.647-4.89-.188-1.683-.199-9.014-.024-16.293.342-14.185 4.317-17.383 8.264-6.649 1.331 3.622 4.333 7.344 6.67 8.271 5.553 2.204 12.331-.578 12.331-5.062 0-1.947 1.82-5.1 4.042-7.008 3.341-2.867 4.108-2.564 4.42 1.749 1.354 18.708-1.765 40.204-6.299 43.404-1.93 1.363-9.039 1.879-15.797 1.146-18.907-2.05-34.868.901-34.868 6.448 0 2.556 1.317 6.01 2.927 7.675 2.028 2.096 2.157 8.292.419 20.163-1.38 9.425-1.61 17.71-.513 18.412 1.098.702 1.438 19.775.755 42.386-1.38 45.743-1.367 51.908.18 80.704 1.079 20.11-2.159 28.96-8.997 24.59-3.412-2.18-3.837-49.07-1.385-152.644l1.105-46.668h-6.517c-3.585 0-7.329 1.355-8.319 3.012-.99 1.657-2.162 37.702-2.604 80.102-.443 42.399-1.664 79.91-2.715 83.358-1.171 3.842-.788 6.269.99 6.269 1.595 0 2.646 3.759 2.335 8.353-.31 4.594-1.172 8.353-1.913 8.353-.74 0-1.347 7.188-1.347 15.973 0 12.483-.95 16.164-4.353 16.854-3.469.703-4.726-2.528-6.19-15.905zm82.36-217.282c.967-.127 3.048-4.06 4.626-8.74l2.868-8.507-12.71.846c-11.428.76-12.744 1.547-13.064 7.81-.495 9.713 1.763 10.774 18.28 8.591zm11.897 231.322c-.816-1.366-1.356-15.47-1.2-31.344.155-15.874.145-33.648-.022-39.498l-.305-10.637-20.368.784c-15.292.589-20.956-.199-22.727-3.16-4.045-6.769-.802-7.767 23.974-7.377 18.404.29 23.426-.405 21.377-2.957-1.474-1.834-2.281-6.849-1.794-11.144.81-7.155.072-7.88-8.814-8.65-5.662-.49-13.318-3.968-18.396-8.358l-8.697-7.519.194-31.36c.204-32.752 3.292-44.19 10.994-40.71 4.61 2.084 4.575 2.084 33.822-.538 26.612-2.385 37.395 1.892 40.397 16.024 1.233 5.804.835 9.358-1.123 10.032-3.998 1.378-3.877 9.737.202 13.955 1.778 1.838 2.082 3.343.674 3.342-1.408 0-2.39 7.09-2.182 15.757.505 21.089-6.29 28.822-25.328 28.822h-13.068l-.636 11.145-.636 11.144h20.496c20.43 0 32.49 3.476 29.489 8.499-.87 1.455-12.294 2.646-25.386 2.646-19.498 0-24.109.82-25.486 4.532-.925 2.493-.57 5.941.79 7.662 1.93 2.443 2.35 48.3.622 67.908-.354 4.021-4.68 4.651-6.862 1zm-.181-141.65v-15.935l-12.12.892c-15.551 1.143-16.173 1.642-16.173 12.978 0 10.436 7.113 16.357 20.94 17.428 7.215.56 7.353.271 7.353-15.364zm33.577 9.872c3.022-3.354 5.495-9.599 5.495-13.878 0-8.228-1.036-8.77-22.414-11.74-9.993-1.388-10.245-1.213-8.762 6.088.839 4.135.464 9.224-.834 11.309-1.298 2.085-1.76 6.16-1.028 9.055 1.978 7.821 20.243 7.268 27.543-.834zm-33.865-37.316c.9-2.423 1.635-8.692 1.635-13.93 0-9.156-.39-9.522-10.104-9.481-11.547.048-14.833 1.773-19.005 9.974-4.751 9.341 2.635 17.845 15.5 17.845 6.941 0 10.876-1.449 11.974-4.408zm39.156-.164c.629-.574.021-5.736-1.347-11.47-2.269-9.496-3.396-10.504-12.624-11.293-5.866-.502-11.567.671-13.537 2.786-3.885 4.167-4.644 19.505-1.094 22.087 2.329 1.694 26.379-.08 28.602-2.11zM58.821 272.054c-.654-1.15.257-13.958 2.025-28.464 1.768-14.506 3.46-55.792 3.759-91.746.299-35.954 1.105-65.952 1.792-66.662.687-.71 3.22.401 5.63 2.469 3.829 3.285 4.167 8.876 2.684 44.279-.934 22.285-2.415 61.833-3.29 87.883-.877 26.05-2.81 48.932-4.297 50.848-3.045 3.924-6.53 4.509-8.303 1.393zM197.79 69.373c-4.063-4.772-4.633-44.846-.674-47.376 2.62-1.674 3.786 1.97 2.896 9.055-.289 2.298 3.355 3.482 10.711 3.482 8.957 0 11.432-1.117 12.587-5.686 2.965-11.721 7.49-3.308 7.638 14.197.185 22.106-5.421 30.552-20.171 30.39-5.29-.059-11.135-1.887-12.987-4.062zm24.255-14.041c.93-5.032-.182-7.888-3.866-9.927-7.359-4.071-16.803-2.003-17.895 3.92-1.684 9.133 1.706 13.07 11.254 13.07 7.71 0 9.413-1.145 10.507-7.063zM64.408 34.37c-9.705-5.968-5.484-10.97 9.43-11.177 7.781-.108 16.374-1.102 19.094-2.21 7.897-3.215 32.892.733 37.986 6 6.08 6.286 4.41 6.738-32.154 8.698-18.53.993-31.408.501-34.356-1.311z" fill="#fff"/></svg>